<svg xmlns="http://www.w3.org/2000/svg" viewBox="0 0 1440 320"><path fill="#0099ff" fill-opacity="1" d="M0,128L30,149.3C60,171,120,213,180,208C240,203,300,149,360,133.3C420,117,480,139,540,165.3C600,192,660,224,720,245.3C780,267,840,277,900,272C960,267,1020,245,1080,208C1140,171,1200,117,1260,106.7C1320,96,1380,128,1410,144L1440,160L1440,0L1410,0C1380,0,1320,0,1260,0C1200,0,1140,0,1080,0C1020,0,960,0,900,0C840,0,780,0,720,0C660,0,600,0,540,0C480,0,420,0,360,0C300,0,240,0,180,0C120,0,60,0,30,0L0,0Z"></path></svg>
